<svg xmlns="http://www.w3.org/2000/svg" viewBox="0 0 960 720" role="img" aria-labelledby="title desc">
  <title id="title">מנהל דפי מקורות</title>
  <desc id="desc">איור מופשט של דפי מקורות, כרטיסיות וטקסט מאורגן.</desc>
  <defs>
    <linearGradient id="bg" x1="0" y1="0" x2="1" y2="1">
      <stop offset="0%" stop-color="#fff7e8"/>
      <stop offset="100%" stop-color="#f7d7b0"/>
    </linearGradient>
  </defs>
  <rect width="960" height="720" rx="48" fill="url(#bg)"/>
  <circle cx="760" cy="120" r="82" fill="#d56a39" opacity="0.18"/>
  <circle cx="170" cy="590" r="96" fill="#7e8a5b" opacity="0.16"/>
  <rect x="170" y="130" width="620" height="430" rx="30" fill="#fffdf8" stroke="#c7804f" stroke-width="10"/>
  <rect x="220" y="185" width="220" height="42" rx="21" fill="#d56a39"/>
  <rect x="470" y="185" width="120" height="42" rx="21" fill="#efe2cf"/>
  <rect x="610" y="185" width="120" height="42" rx="21" fill="#efe2cf"/>
  <rect x="220" y="270" width="510" height="26" rx="13" fill="#d4b28b"/>
  <rect x="220" y="322" width="430" height="22" rx="11" fill="#eadac6"/>
  <rect x="220" y="365" width="470" height="22" rx="11" fill="#eadac6"/>
  <rect x="220" y="408" width="370" height="22" rx="11" fill="#eadac6"/>
  <g transform="translate(620 305)">
    <rect x="0" y="0" width="130" height="170" rx="22" fill="#7e8a5b"/>
    <rect x="18" y="22" width="94" height="16" rx="8" fill="#f3eadc"/>
    <rect x="18" y="58" width="94" height="16" rx="8" fill="#f3eadc"/>
    <rect x="18" y="94" width="66" height="16" rx="8" fill="#f3eadc"/>
    <path d="M90 128l14 14 28-34" fill="none" stroke="#f3eadc" stroke-linecap="round" stroke-linejoin="round" stroke-width="10"/>
  </g>
  <rect x="280" y="585" width="400" height="48" rx="24" fill="#a54b29"/>
</svg>
