<svg xmlns="http://www.w3.org/2000/svg" viewBox="0 0 960 720" role="img" aria-labelledby="title desc">
  <title id="title">מעשר כספים</title>
  <desc id="desc">איור של מטבעות, מחברת חישוב וניהול תרומות.</desc>
  <defs>
    <linearGradient id="bg" x1="0" y1="0" x2="1" y2="1">
      <stop offset="0%" stop-color="#f6f1e1"/>
      <stop offset="100%" stop-color="#e2d0a1"/>
    </linearGradient>
  </defs>
  <rect width="960" height="720" rx="48" fill="url(#bg)"/>
  <circle cx="190" cy="150" r="84" fill="#8a6c2f" opacity="0.14"/>
  <circle cx="780" cy="560" r="112" fill="#3d6f57" opacity="0.16"/>
  <rect x="248" y="130" width="440" height="460" rx="34" fill="#fffdf8" stroke="#8a6c2f" stroke-width="12"/>
  <rect x="310" y="200" width="250" height="22" rx="11" fill="#e9dfc1"/>
  <rect x="310" y="248" width="190" height="18" rx="9" fill="#e9dfc1"/>
  <rect x="310" y="312" width="310" height="88" rx="22" fill="#f1ebd8"/>
  <path d="M370 356h124" stroke="#3d6f57" stroke-width="14" stroke-linecap="round"/>
  <path d="M552 338v36" stroke="#8a6c2f" stroke-width="14" stroke-linecap="round"/>
  <g transform="translate(170 380)">
    <circle cx="0" cy="0" r="78" fill="#c9a54a"/>
    <circle cx="0" cy="0" r="52" fill="#f8f1dc"/>
    <path d="M-18 10c8 8 28 8 36-4 9-13-7-30-26-24-18 6-17 32 8 36" fill="none" stroke="#8a6c2f" stroke-width="10" stroke-linecap="round"/>
  </g>
  <g transform="translate(706 234)">
    <rect x="0" y="0" width="92" height="122" rx="18" fill="#3d6f57"/>
    <path d="M28 34h36M28 58h36M28 82h24" stroke="#f7f3e6" stroke-width="10" stroke-linecap="round"/>
  </g>
  <rect x="330" y="452" width="276" height="56" rx="18" fill="#3d6f57"/>
  <circle cx="606" cy="480" r="12" fill="#f8f1dc"/>
</svg>
