<svg xmlns="http://www.w3.org/2000/svg" viewBox="0 0 960 720" role="img" aria-labelledby="title desc">
  <title id="title">מנהל מראי מקומות</title>
  <desc id="desc">איור של ספר פתוח, סימוני עיון ורשימת מקורות.</desc>
  <defs>
    <linearGradient id="bg" x1="0" y1="0" x2="1" y2="1">
      <stop offset="0%" stop-color="#edf6ef"/>
      <stop offset="100%" stop-color="#c8e0d2"/>
    </linearGradient>
  </defs>
  <rect width="960" height="720" rx="48" fill="url(#bg)"/>
  <circle cx="180" cy="140" r="80" fill="#2d6a4f" opacity="0.12"/>
  <circle cx="790" cy="600" r="110" fill="#f2c66b" opacity="0.18"/>
  <path d="M190 520c0-84 68-152 152-152h138v208H342c-84 0-152-68-152-56z" fill="#fffef8" stroke="#2d6a4f" stroke-width="12"/>
  <path d="M770 520c0-84-68-152-152-152H480v208h138c84 0 152-68 152-56z" fill="#fffef8" stroke="#2d6a4f" stroke-width="12"/>
  <path d="M480 206v398" stroke="#2d6a4f" stroke-width="12"/>
  <rect x="260" y="260" width="140" height="20" rx="10" fill="#dfe8df"/>
  <rect x="260" y="305" width="165" height="18" rx="9" fill="#dfe8df"/>
  <rect x="260" y="346" width="120" height="18" rx="9" fill="#dfe8df"/>
  <rect x="540" y="260" width="140" height="20" rx="10" fill="#dfe8df"/>
  <rect x="540" y="305" width="165" height="18" rx="9" fill="#dfe8df"/>
  <rect x="540" y="346" width="120" height="18" rx="9" fill="#dfe8df"/>
  <g transform="translate(610 420)">
    <rect x="0" y="0" width="170" height="116" rx="22" fill="#f2c66b" stroke="#b1862e" stroke-width="8"/>
    <rect x="30" y="28" width="108" height="14" rx="7" fill="#fff7e6"/>
    <rect x="30" y="56" width="82" height="14" rx="7" fill="#fff7e6"/>
    <circle cx="134" cy="82" r="12" fill="#2d6a4f"/>
  </g>
  <path d="M246 450h92" stroke="#d05d3f" stroke-width="18" stroke-linecap="round"/>
  <path d="M620 450h92" stroke="#d05d3f" stroke-width="18" stroke-linecap="round"/>
</svg>
