<svg xmlns="http://www.w3.org/2000/svg" viewBox="0 0 960 720" role="img" aria-labelledby="title desc">
  <title id="title">שמירת סדרים</title>
  <desc id="desc">איור של שעון, טבלת מעקב וסימון נוכחות.</desc>
  <defs>
    <linearGradient id="bg" x1="0" y1="0" x2="1" y2="1">
      <stop offset="0%" stop-color="#fff3ec"/>
      <stop offset="100%" stop-color="#ffd8c8"/>
    </linearGradient>
  </defs>
  <rect width="960" height="720" rx="48" fill="url(#bg)"/>
  <circle cx="760" cy="150" r="92" fill="#cc5c3a" opacity="0.14"/>
  <circle cx="150" cy="560" r="108" fill="#3f6f7c" opacity="0.14"/>
  <circle cx="305" cy="320" r="155" fill="#fffef9" stroke="#cc5c3a" stroke-width="14"/>
  <circle cx="305" cy="320" r="12" fill="#cc5c3a"/>
  <path d="M305 320V238" stroke="#cc5c3a" stroke-width="16" stroke-linecap="round"/>
  <path d="M305 320l70 46" stroke="#cc5c3a" stroke-width="16" stroke-linecap="round"/>
  <g transform="translate(500 180)">
    <rect x="0" y="0" width="270" height="300" rx="28" fill="#fffef9" stroke="#3f6f7c" stroke-width="12"/>
    <rect x="34" y="40" width="160" height="18" rx="9" fill="#d7e1e4"/>
    <rect x="34" y="82" width="200" height="18" rx="9" fill="#d7e1e4"/>
    <rect x="34" y="124" width="180" height="18" rx="9" fill="#d7e1e4"/>
    <rect x="34" y="176" width="202" height="58" rx="18" fill="#e8f0f2"/>
    <path d="M182 204l16 16 30-38" fill="none" stroke="#3f6f7c" stroke-linecap="round" stroke-linejoin="round" stroke-width="10"/>
  </g>
  <rect x="238" y="548" width="484" height="44" rx="22" fill="#cc5c3a"/>
</svg>
