<svg xmlns="http://www.w3.org/2000/svg" viewBox="0 0 100 100" width="100" height="100">
  <rect width="100" height="100" rx="16" fill="#2c5f2e"/>
  <rect x="10" y="25" width="32" height="50" rx="3" fill="#f5e6c8"/>
  <rect x="8" y="20" width="8" height="60" rx="4" fill="#8B4513"/>
  <rect x="34" y="20" width="8" height="60" rx="4" fill="#8B4513"/>
  <rect x="58" y="25" width="32" height="50" rx="3" fill="#f5e6c8"/>
  <rect x="56" y="20" width="8" height="60" rx="4" fill="#8B4513"/>
  <rect x="82" y="20" width="8" height="60" rx="4" fill="#8B4513"/>
  <line x1="14" y1="36" x2="38" y2="36" stroke="#a08050" stroke-width="1.5"/>
  <line x1="14" y1="43" x2="38" y2="43" stroke="#a08050" stroke-width="1.5"/>
  <line x1="14" y1="50" x2="38" y2="50" stroke="#a08050" stroke-width="1.5"/>
  <line x1="14" y1="57" x2="38" y2="57" stroke="#a08050" stroke-width="1.5"/>
  <line x1="14" y1="64" x2="38" y2="64" stroke="#a08050" stroke-width="1.5"/>
  <line x1="62" y1="36" x2="86" y2="36" stroke="#a08050" stroke-width="1.5"/>
  <line x1="62" y1="43" x2="86" y2="43" stroke="#a08050" stroke-width="1.5"/>
  <line x1="62" y1="50" x2="86" y2="50" stroke="#a08050" stroke-width="1.5"/>
  <line x1="62" y1="57" x2="86" y2="57" stroke="#a08050" stroke-width="1.5"/>
  <line x1="62" y1="64" x2="86" y2="64" stroke="#a08050" stroke-width="1.5"/>
  <text x="50" y="58" font-size="20" font-weight="bold" fill="white" text-anchor="middle" font-family="serif">2x</text>
</svg>
